<?xml version="1.0" encoding="UTF-8"?>
<svg width="24px" height="24px" viewBox="0 0 24 24" version="1.1" xmlns="http://www.w3.org/2000/svg" xmlns:xlink="http://www.w3.org/1999/xlink">
    <!-- Generator: Sketch 44 (41411) - http://www.bohemiancoding.com/sketch -->
    <title>filter-goodfaith-issues</title>
    <desc>Created with Sketch.</desc>
    <defs></defs>
    <g id="Icons" stroke="none" stroke-width="1" fill="none" fill-rule="evenodd">
        <g id="filter-goodfaith-issues" fill="#54595D">
            <path d="M10.912037,5.03372825 L2.84758667,19.6265432 L14.098152,19.6265432 L15.2751029,12.9287998 L10.912037,5.03372825 Z M16.321118,12.7541326 L14.9377505,20.6265432 L1.15241333,20.6265432 L10.912037,2.96627175 L16.321118,12.7541326 Z" id="Triangle-2-Copy" fill-rule="nonzero"></path>
            <path d="M13.6635802,12.4876543 L23,12.4876543 L23,21.8240741 L13.6635802,21.8240741 L13.6635802,12.4876543 Z M20.1598007,14.8217593 C19.6783588,14.8217593 19.3344717,15.2344238 19.3344717,15.6470883 C19.3344717,16.0597528 19.7471362,16.4724173 20.1598007,16.4724173 C20.5724652,16.4724173 20.9851297,16.0597528 20.9851297,15.6470883 C20.9851297,15.2344238 20.6412426,14.8217593 20.1598007,14.8217593 Z M16.7209299,14.8217593 C16.2394879,14.8217593 15.8956009,15.3032012 15.8956009,15.7158657 C15.8956009,16.1285302 16.2394879,16.5411947 16.7209299,16.5411947 C17.2023718,16.5411947 17.5462589,16.0597528 17.5462589,15.6470883 C17.5462589,15.2344238 17.2023718,14.8217593 16.7209299,14.8217593 Z M21.535349,18.5357397 C21.535349,18.3981849 21.535349,18.3294075 21.3977942,18.2606301 C21.2602394,18.1918527 21.1226845,18.1230753 21.0539071,18.1230753 C20.9851297,18.1230753 20.8475749,18.1918527 20.7787974,18.2606301 C20.4349104,18.6045172 19.9534684,18.8108494 19.3344717,18.9484042 C18.7154749,19.0859591 18.1652556,19.0859591 17.5462589,18.9484042 C16.9272621,18.8108494 16.4458202,18.5357397 16.1019331,18.1918527 C16.0331557,18.1230753 15.9643783,18.0542978 15.8268234,18.0542978 C15.758046,18.0542978 15.6204912,18.1230753 15.5517138,18.1918527 C15.4829364,18.2606301 15.414159,18.3981849 15.414159,18.4669623 C15.414159,18.5357397 15.4829364,18.6732946 15.5517138,18.742072 C16.0331557,19.1547365 16.7209299,19.6361784 17.408704,19.7737332 C18.0964782,19.9112881 18.8530298,19.9800655 19.5408039,19.7737332 C20.2285781,19.567401 20.8475749,19.2922913 21.3290168,18.8796268 C21.4665716,18.742072 21.535349,18.6732946 21.535349,18.5357397 Z" id="Combined-Shape"></path>
            <path d="M11.607099,15.3276235 L10.4867286,15.3276235 L10.4867286,10.7901235 L11.607099,10.7901235 L11.607099,15.3276235 Z M10.3000002,16.7467593 C10.3000002,16.5475813 10.3731347,16.3764153 10.5194061,16.2332562 C10.6656774,16.090097 10.8415115,16.0185185 11.0469138,16.0185185 C11.2460917,16.0185185 11.4203698,16.0869849 11.5697533,16.2239198 C11.7191367,16.3608546 11.7938274,16.5289085 11.7938274,16.7280864 C11.7938274,16.9272644 11.7206928,17.0984304 11.5744215,17.2415895 C11.4281502,17.3847487 11.252316,17.4563272 11.0469138,17.4563272 C10.9473248,17.4563272 10.8524055,17.4376545 10.762153,17.4003086 C10.6719005,17.3629628 10.5925417,17.313169 10.5240743,17.2509259 C10.4556068,17.1886828 10.4011449,17.1139922 10.3606869,17.0268519 C10.3202289,16.9397115 10.3000002,16.8463482 10.3000002,16.7467593 Z" id="!-copy"></path>
        </g>
    </g>
</svg>