<?xml version="1.0" encoding="UTF-8"?>
<svg width="24px" height="24px" viewBox="0 0 24 24" version="1.1" xmlns="http://www.w3.org/2000/svg" xmlns:xlink="http://www.w3.org/1999/xlink">
    <!-- Generator: Sketch 44 (41411) - http://www.bohemiancoding.com/sketch -->
    <title>filter-maybe-vandalism-active</title>
    <desc>Created with Sketch.</desc>
    <defs></defs>
    <g id="Icons" stroke="none" stroke-width="1" fill="none" fill-rule="evenodd">
        <g id="filter-maybe-vandalism-active" fill="#FFCC33">
            <path d="M12,2 L23,21.9047619 L1,21.9047619 L12,2 Z M12.6704506,16.571735 L12.6704506,10.9711636 L11.2875935,10.9711636 L11.2875935,16.571735 L12.6704506,16.571735 Z M11.0571173,18.3233541 C11.0571173,18.4462753 11.0820853,18.5615123 11.132022,18.6690684 C11.1819588,18.7766245 11.2491804,18.868814 11.3336887,18.9456398 C11.4181971,19.0224656 11.5161485,19.0839253 11.6275459,19.1300208 C11.7389432,19.1761162 11.8561008,19.1991636 11.979022,19.1991636 C12.2325471,19.1991636 12.4495767,19.1108153 12.6301173,18.934116 C12.8106579,18.7574167 12.9009268,18.546149 12.9009268,18.3003065 C12.9009268,18.054464 12.8087373,17.8470375 12.6243554,17.6780208 C12.4399735,17.509004 12.2248645,17.424497 11.979022,17.424497 C11.725497,17.424497 11.5084674,17.5128453 11.3279268,17.6895446 C11.1473862,17.8662439 11.0571173,18.0775116 11.0571173,18.3233541 Z" id="Combined-Shape"></path>
        </g>
    </g>
</svg>