<?xml version="1.0" encoding="UTF-8"?>
<svg width="16px" height="16px" viewBox="0 0 16 16" version="1.1" xmlns="http://www.w3.org/2000/svg" xmlns:xlink="http://www.w3.org/1999/xlink">
    <!-- Generator: Sketch 44 (41411) - http://www.bohemiancoding.com/sketch -->
    <title>user-sad-red-newcomer</title>
    <desc>Created with Sketch.</desc>
    <defs></defs>
    <g id="Icons" stroke="none" stroke-width="1" fill="none" fill-rule="evenodd">
        <g id="user-sad-red-newcomer">
            <g id="Group-4" transform="translate(0.000000, 0.500000)">
                <polygon id="Star-2-Copy-2" fill="#DD3333" points="8 13.6855355 5.52786405 15.2169043 4.42798004 12.5249158 1.52786405 12.3107341 2.2203503 9.48637416 0 7.60845213 2.2203503 5.7305301 1.52786405 2.90617011 4.42798004 2.69198844 5.52786405 2.11497486e-14 8 1.5313688 10.472136 2.02615702e-14 11.57202 2.69198844 14.472136 2.90617011 13.7796497 5.7305301 16 7.60845213 13.7796497 9.48637416 14.472136 12.3107341 11.57202 12.5249158 10.472136 15.2169043"></polygon>
                <path d="M12.8799998,10.5639117 C12.8799998,10.3543736 12.7752308,10.2496046 12.5656927,10.0400665 C11.8323094,9.41145227 10.8893881,8.99237612 9.84169774,8.67806901 C8.79400738,8.3637619 7.64154798,8.46853094 6.59385761,8.67806901 C5.54616725,8.88760708 4.49847688,9.62099034 3.76509363,10.2496046 C3.66032459,10.3543736 3.55555556,10.5639117 3.55555556,10.6686807 C3.55555556,10.7734497 3.66032459,10.9829878 3.76509363,11.0877568 C3.86986266,11.1925259 4.07940074,11.2972949 4.18416977,11.2972949 C4.39370785,11.2972949 4.49847688,11.1925259 4.60324592,11.0877568 C5.1270911,10.5639117 5.86047436,10.1448355 6.80339568,9.93529745 C7.74631701,9.72575937 8.5844693,9.72575937 9.52739063,9.93529745 C10.470312,10.1448355 11.2036952,10.4591426 11.7275404,10.9829878 C11.8323094,11.0877568 12.0418475,11.1925259 12.1466165,11.1925259 C12.2513856,11.1925259 12.4609237,11.0877568 12.6704617,10.9829878 C12.8799998,10.8782188 12.8799998,10.7734497 12.8799998,10.5639117 L12.8799998,10.5639117 Z" id="Page-1-Copy" fill="#481112"></path>
                <path d="M0.888888889,6.85665003 L2.2203503,5.7305301 L1.52786405,2.90617011 L4.42798004,2.69198844 L4.43832593,2.66666667 L11.5616741,2.66666667 L11.57202,2.69198844 L14.472136,2.90617011 L13.7796497,5.7305301 L15.1111111,6.85665003 L15.1111111,7.11111111 L0.888888889,7.11111111 L0.888888889,6.85665003 Z M10.7846191,3.55555556 C10.0512358,3.55555556 9.52739063,4.18416977 9.52739063,4.81278399 C9.52739063,5.44139821 10.1560048,6.07001243 10.7846191,6.07001243 C11.4132333,6.07001243 12.0418475,5.44139821 12.0418475,4.81278399 C12.0418475,4.18416977 11.5180023,3.55555556 10.7846191,3.55555556 Z M5.54616725,3.55555556 C4.81278399,3.55555556 4.28893881,4.28893881 4.28893881,4.91755303 C4.28893881,5.54616725 4.81278399,6.17478147 5.54616725,6.17478147 C6.2795505,6.17478147 6.80339568,5.44139821 6.80339568,4.81278399 C6.80339568,4.18416977 6.2795505,3.55555556 5.54616725,3.55555556 Z" id="Combined-Shape" fill="#481112"></path>
            </g>
        </g>
    </g>
</svg>