<?xml version="1.0" encoding="UTF-8"?>
<svg width="24px" height="24px" viewBox="0 0 24 24" version="1.1" xmlns="http://www.w3.org/2000/svg" xmlns:xlink="http://www.w3.org/1999/xlink">
    <!-- Generator: Sketch 44 (41411) - http://www.bohemiancoding.com/sketch -->
    <title>filter-goodfaith-issues-active</title>
    <desc>Created with Sketch.</desc>
    <defs></defs>
    <g id="Icons" stroke="none" stroke-width="1" fill="none" fill-rule="evenodd">
        <g id="filter-goodfaith-issues-active">
            <path d="M10.5526316,3 L15.9892837,12.8377515 L14.2184096,20.2857143 L1,20.2857143 L10.5526316,3 Z M11.134865,15.6544015 L11.134865,10.7907474 L9.93396275,10.7907474 L9.93396275,15.6544015 L11.134865,15.6544015 Z M9.73381238,17.1755443 C9.73381238,17.2822917 9.75549512,17.3823659 9.79886125,17.4757699 C9.84222738,17.5691739 9.90060399,17.6492332 9.97399283,17.7159504 C10.0473817,17.7826675 10.1324447,17.8360404 10.2291846,17.8760707 C10.3259244,17.9161009 10.4276665,17.9361158 10.5344139,17.9361158 C10.7545804,17.9361158 10.9430534,17.8593922 11.0998387,17.7059428 C11.2566239,17.5524935 11.3350154,17.3690241 11.3350154,17.1555293 C11.3350154,16.9420345 11.254956,16.761901 11.0948349,16.6151233 C10.9347138,16.4683456 10.7479087,16.3949579 10.5344139,16.3949579 C10.3142474,16.3949579 10.1257743,16.4716814 9.96898907,16.6251308 C9.81220382,16.7785802 9.73381238,16.9620495 9.73381238,17.1755443 Z" id="Combined-Shape-Copy" fill="#FFCC33"></path>
            <path d="M13.6635802,12.4899998 L23,12.4899998 L23,21.8264195 L13.6635802,21.8264195 L13.6635802,12.4899998 Z M20.1598007,14.8241047 C19.6783588,14.8241047 19.3344717,15.2367692 19.3344717,15.6494337 C19.3344717,16.0620982 19.7471362,16.4747627 20.1598007,16.4747627 C20.5724652,16.4747627 20.9851297,16.0620982 20.9851297,15.6494337 C20.9851297,15.2367692 20.6412426,14.8241047 20.1598007,14.8241047 Z M16.7209299,14.8241047 C16.2394879,14.8241047 15.8956009,15.3055466 15.8956009,15.7182111 C15.8956009,16.1308756 16.2394879,16.5435401 16.7209299,16.5435401 C17.2023718,16.5435401 17.5462589,16.0620982 17.5462589,15.6494337 C17.5462589,15.2367692 17.2023718,14.8241047 16.7209299,14.8241047 Z M21.535349,18.5380852 C21.535349,18.4005304 21.535349,18.331753 21.3977942,18.2629755 C21.2602394,18.1941981 21.1226845,18.1254207 21.0539071,18.1254207 C20.9851297,18.1254207 20.8475749,18.1941981 20.7787974,18.2629755 C20.4349104,18.6068626 19.9534684,18.8131949 19.3344717,18.9507497 C18.7154749,19.0883045 18.1652556,19.0883045 17.5462589,18.9507497 C16.9272621,18.8131949 16.4458202,18.5380852 16.1019331,18.1941981 C16.0331557,18.1254207 15.9643783,18.0566433 15.8268234,18.0566433 C15.758046,18.0566433 15.6204912,18.1254207 15.5517138,18.1941981 C15.4829364,18.2629755 15.414159,18.4005304 15.414159,18.4693078 C15.414159,18.5380852 15.4829364,18.67564 15.5517138,18.7444174 C16.0331557,19.1570819 16.7209299,19.6385239 17.408704,19.7760787 C18.0964782,19.9136335 18.8530298,19.9824109 19.5408039,19.7760787 C20.2285781,19.5697464 20.8475749,19.2946368 21.3290168,18.8819723 C21.4665716,18.7444174 21.535349,18.67564 21.535349,18.5380852 Z" id="Combined-Shape" fill="#00AF89"></path>
        </g>
    </g>
</svg>