<?xml version="1.0" encoding="UTF-8"?>
<svg width="24px" height="24px" viewBox="0 0 24 24" version="1.1" xmlns="http://www.w3.org/2000/svg" xmlns:xlink="http://www.w3.org/1999/xlink">
    <!-- Generator: Sketch 44 (41411) - http://www.bohemiancoding.com/sketch -->
    <title>filter-top-vandalism-active</title>
    <desc>Created with Sketch.</desc>
    <defs></defs>
    <g id="Icons" stroke="none" stroke-width="1" fill="none" fill-rule="evenodd">
        <g id="filter-top-vandalism-active" fill="#DD3333">
            <path d="M12,2 L23,21.9047619 L1,21.9047619 L12,2 Z M14.2418792,16.571735 L14.2418792,10.9711636 L12.859022,10.9711636 L12.859022,16.571735 L14.2418792,16.571735 Z M12.6285459,18.3233541 C12.6285459,18.4462753 12.6535139,18.5615123 12.7034506,18.6690684 C12.7533874,18.7766245 12.8206089,18.868814 12.9051173,18.9456398 C12.9896256,19.0224656 13.087577,19.0839253 13.1989744,19.1300208 C13.3103718,19.1761162 13.4275294,19.1991636 13.5504506,19.1991636 C13.8039757,19.1991636 14.0210053,19.1108153 14.2015459,18.934116 C14.3820864,18.7574167 14.4723554,18.546149 14.4723554,18.3003065 C14.4723554,18.054464 14.3801658,17.8470375 14.1957839,17.6780208 C14.0114021,17.509004 13.7962931,17.424497 13.5504506,17.424497 C13.2969255,17.424497 13.079896,17.5128453 12.8993554,17.6895446 C12.7188148,17.8662439 12.6285459,18.0775116 12.6285459,18.3233541 Z M11.099022,16.571735 L11.099022,10.9711636 L9.7161649,10.9711636 L9.7161649,16.571735 L11.099022,16.571735 Z M9.48568871,18.3233541 C9.48568871,18.4462753 9.51065671,18.5615123 9.56059347,18.6690684 C9.61053023,18.7766245 9.67775178,18.868814 9.76226014,18.9456398 C9.8467685,19.0224656 9.9447199,19.0839253 10.0561173,19.1300208 C10.1675147,19.1761162 10.2846722,19.1991636 10.4075935,19.1991636 C10.6611185,19.1991636 10.8781481,19.1108153 11.0586887,18.934116 C11.2392293,18.7574167 11.3294982,18.546149 11.3294982,18.3003065 C11.3294982,18.054464 11.2373087,17.8470375 11.0529268,17.6780208 C10.8685449,17.509004 10.653436,17.424497 10.4075935,17.424497 C10.1540684,17.424497 9.93703882,17.5128453 9.75649823,17.6895446 C9.57595765,17.8662439 9.48568871,18.0775116 9.48568871,18.3233541 Z" id="Combined-Shape"></path>
        </g>
    </g>
</svg>