<?xml version="1.0" encoding="UTF-8"?>
<svg width="16px" height="16px" viewBox="0 0 16 16" version="1.1" xmlns="http://www.w3.org/2000/svg" xmlns:xlink="http://www.w3.org/1999/xlink">
    <!-- Generator: Sketch 44 (41411) - http://www.bohemiancoding.com/sketch -->
    <title>user-happy-yellow</title>
    <desc>Created with Sketch.</desc>
    <defs></defs>
    <g id="Icons" stroke="none" stroke-width="1" fill="none" fill-rule="evenodd">
        <g id="user-happy-yellow">
            <g id="good/normal">
                <rect id="Rectangle-Copy-2" fill="#FFCC33" x="0" y="0" width="16" height="16"></rect>
                <path d="M11.1326965,4 C11.9577526,4 12.5470784,4.707191 12.5470784,5.41438199 C12.5470784,6.12157299 11.8398874,6.82876398 11.1326965,6.82876398 C10.4255055,6.82876398 9.71831446,6.12157299 9.71831446,5.41438199 C9.71831446,4.707191 10.3076403,4 11.1326965,4 Z M5.23943815,4 C6.06449432,4 6.65382014,4.707191 6.65382014,5.41438199 C6.65382014,6.12157299 6.06449432,6.94662915 5.23943815,6.94662915 C4.41438199,6.94662915 3.82505616,6.23943815 3.82505616,5.53224716 C3.82505616,4.82505616 4.41438199,4 5.23943815,4 Z M13.4899998,10.364719 C13.4899998,10.6004493 13.3721346,10.7183145 13.1364043,10.9540448 C12.3113481,11.6612358 11.2505616,12.1326965 10.07191,12.4862919 C8.8932583,12.8398874 7.59674147,12.7220223 6.41808981,12.4862919 C5.23943815,12.2505616 4.06078649,11.4255055 3.23573033,10.7183145 C3.11786517,10.6004493 3,10.364719 3,10.2468538 C3,10.1289886 3.11786517,9.8932583 3.23573033,9.77539313 C3.3535955,9.65752797 3.58932583,9.5396628 3.707191,9.5396628 C3.94292133,9.5396628 4.06078649,9.65752797 4.17865166,9.77539313 C4.76797749,10.364719 5.59303365,10.8361796 6.65382014,11.07191 C7.71460664,11.3076403 8.65752797,11.3076403 9.71831446,11.07191 C10.779101,10.8361796 11.6041571,10.4825841 12.1934829,9.8932583 C12.3113481,9.77539313 12.5470784,9.65752797 12.6649436,9.65752797 C12.7828088,9.65752797 13.0185391,9.77539313 13.2542694,9.8932583 C13.4899998,10.0111235 13.4899998,10.1289886 13.4899998,10.364719 L13.4899998,10.364719 Z" id="Page-1-Copy" fill="#544712"></path>
            </g>
        </g>
    </g>
</svg>