<?xml version="1.0" encoding="UTF-8"?>
<svg width="16px" height="16px" viewBox="0 0 16 16" version="1.1" xmlns="http://www.w3.org/2000/svg" xmlns:xlink="http://www.w3.org/1999/xlink">
    <!-- Generator: Sketch 44 (41411) - http://www.bohemiancoding.com/sketch -->
    <title>user-sad-yellow</title>
    <desc>Created with Sketch.</desc>
    <defs></defs>
    <g id="Icons" stroke="none" stroke-width="1" fill="none" fill-rule="evenodd">
        <g id="user-sad-yellow">
            <g id="Group-Copy">
                <rect id="Rectangle-Copy-2" fill="#FFCC33" x="0" y="0" width="16" height="16"></rect>
                <path d="M13.4899998,12.8844006 C13.4899998,12.6486703 13.3721346,12.5308051 13.1364043,12.2950748 C12.3113481,11.5878838 11.2505616,11.1164231 10.07191,10.7628276 C8.8932583,10.4092321 7.59674147,10.5270973 6.41808981,10.7628276 C5.23943815,10.998558 4.06078649,11.8236141 3.23573033,12.5308051 C3.11786517,12.6486703 3,12.8844006 3,13.0022658 C3,13.120131 3.11786517,13.3558613 3.23573033,13.4737265 C3.3535955,13.5915916 3.58932583,13.7094568 3.707191,13.7094568 C3.94292133,13.7094568 4.06078649,13.5915916 4.17865166,13.4737265 C4.76797749,12.8844006 5.59303365,12.41294 6.65382014,12.1772096 C7.71460664,11.9414793 8.65752797,11.9414793 9.71831446,12.1772096 C10.779101,12.41294 11.6041571,12.7665355 12.1934829,13.3558613 C12.3113481,13.4737265 12.5470784,13.5915916 12.6649436,13.5915916 C12.7828088,13.5915916 13.0185391,13.4737265 13.2542694,13.3558613 C13.4899998,13.2379961 13.4899998,13.120131 13.4899998,12.8844006 L13.4899998,12.8844006 Z" id="Page-1-Copy" fill="#544712"></path>
            </g>
            <path d="M0,3 L16,3 L16,8 L0,8 L0,3 Z M11.1326965,4 C10.3076403,4 9.71831446,4.707191 9.71831446,5.41438199 C9.71831446,6.12157299 10.4255055,6.82876398 11.1326965,6.82876398 C11.8398874,6.82876398 12.5470784,6.12157299 12.5470784,5.41438199 C12.5470784,4.707191 11.9577526,4 11.1326965,4 Z M5.23943815,4 C4.41438199,4 3.82505616,4.82505616 3.82505616,5.53224716 C3.82505616,6.23943815 4.41438199,6.94662915 5.23943815,6.94662915 C6.06449432,6.94662915 6.65382014,6.12157299 6.65382014,5.41438199 C6.65382014,4.707191 6.06449432,4 5.23943815,4 Z" id="Combined-Shape" fill="#544712"></path>
        </g>
    </g>
</svg>