<?xml version="1.0" encoding="UTF-8"?>
<svg width="16px" height="16px" viewBox="0 0 16 16" version="1.1" xmlns="http://www.w3.org/2000/svg" xmlns:xlink="http://www.w3.org/1999/xlink">
    <!-- Generator: Sketch 44 (41411) - http://www.bohemiancoding.com/sketch -->
    <title>user-meh-yellow</title>
    <desc>Created with Sketch.</desc>
    <defs></defs>
    <g id="Icons" stroke="none" stroke-width="1" fill="none" fill-rule="evenodd">
        <g id="user-meh-yellow">
            <g id="confused/normal">
                <rect id="Rectangle-Copy-2" fill="#FFCC33" x="0" y="0" width="16" height="16"></rect>
                <path d="M8.47315288,14.2008614 C8.49667936,14.1319932 8.55694488,13.9921157 8.65969019,13.805244 C8.83515132,13.4861178 9.06465192,13.1657556 9.35327656,12.8670406 C10.1794248,12.0120099 11.3137471,11.5 12.8348764,11.5 C13.1110188,11.5 13.3348764,11.2761424 13.3348764,11 C13.3348764,10.7238576 13.1110188,10.5 12.8348764,10.5 C11.0339551,10.5 9.64333076,11.1276994 8.63412791,12.1721843 C8.02607922,12.8014906 7.67849775,13.4336668 7.52684712,13.8775884 C7.43757776,14.1389036 7.5770484,14.4231084 7.83836352,14.5123778 C8.09967864,14.6016472 8.38388351,14.4621765 8.47315288,14.2008614 Z" id="Path-2" fill="#544712" fill-rule="nonzero"></path>
                <path d="M11.1326965,4 C11.9577526,4 12.5470784,4.707191 12.5470784,5.41438199 C12.5470784,6.12157299 11.8398874,6.82876398 11.1326965,6.82876398 C10.4255055,6.82876398 9.71831446,6.12157299 9.71831446,5.41438199 C9.71831446,4.707191 10.3076403,4 11.1326965,4 Z M5.23943815,4 C6.06449432,4 6.65382014,4.707191 6.65382014,5.41438199 C6.65382014,6.12157299 6.06449432,6.94662915 5.23943815,6.94662915 C4.41438199,6.94662915 3.82505616,6.23943815 3.82505616,5.53224716 C3.82505616,4.82505616 4.41438199,4 5.23943815,4 Z" id="Page-1-Copy" fill="#544712"></path>
            </g>
        </g>
    </g>
</svg>